<svg xmlns="http://www.w3.org/2000/svg" fill="none" viewBox="0 0 189 29" height="29" width="189">
<mask height="29" width="189" y="0" x="0" maskUnits="userSpaceOnUse" style="mask-type:luminance" id="mask0_235_27">
<path fill="white" d="M189 0H0V29H189V0Z"></path>
</mask>
<g mask="url(#mask0_235_27)">
<path fill="#FBEEDE" d="M0.326172 2.16478H4.28011L20.0959 22.1048V2.15869H24.0498V27.8259H20.1233L4.30749 7.92537V27.8259H0.326172V2.16478Z"></path>
<path fill="#FBEEDE" d="M31.541 2.15869H51.6149V5.76286H35.495V12.3294L47.2199 12.3447V15.8515H35.4737V24.2004H51.6301V27.8259H31.541V2.15869Z"></path>
<path fill="#FBEEDE" d="M57.5918 2.15869H61.5458V27.8259H57.5918V2.15869Z"></path>
<path fill="#FBEEDE" d="M67.5332 15.0273C67.5332 7.61213 73.3698 1.69946 81.2199 1.69946C85.6088 1.69946 89.3528 3.47265 91.8651 6.29212L88.8236 8.69186C86.9987 6.6571 84.3192 5.41921 81.2047 5.41921C75.6722 5.41921 71.4719 9.5648 71.4719 15.0212C71.4719 20.4777 75.73 24.5928 81.2564 24.5928C82.7351 24.5913 84.1958 24.2682 85.5371 23.6458C86.8785 23.0235 88.0684 22.1168 89.0244 20.9886V14.8904H92.9966V22.2721C91.652 24.1262 89.8901 25.6379 87.8533 26.6851C85.8165 27.7324 83.5618 28.2857 81.2716 28.3004C73.4215 28.3004 67.5332 22.412 67.5332 15.0273Z"></path>
<path fill="#FBEEDE" d="M99.293 2.15869H103.266V12.3538H118.224V2.15869H122.178V27.8259H118.224L118.178 15.964H103.275V27.8259H99.293V2.15869Z"></path>
<path fill="#FBEEDE" d="M135.825 5.78111H126.855L126.834 2.15869H148.696V5.78111H139.748V27.8259H135.825V5.78111Z"></path>
<path fill="#FBEEDE" d="M160.891 2.15869H165.316L174.851 21.2045L184.353 2.16173H188.675L174.894 28.8691L160.891 2.15869Z"></path>
<path fill="#FBEEDE" d="M155.269 28.991C155.269 28.991 155.001 28.8572 154.782 25.5723C154.563 22.2875 154.277 14.623 154.277 14.623L154.18 9.5771C154.18 9.5771 154.46 7.24126 153.189 6.57213C153.189 6.57213 151.972 5.74181 152.681 4.41267C152.681 4.41267 153.925 1.81828 154.317 1.31035C154.317 1.31035 155.163 0.382688 155.567 1.69662C155.567 1.69662 156.09 3.21736 156.525 3.74962C156.96 4.28189 158.025 5.07572 157.365 7.13177C156.705 9.18782 155.938 11.4568 155.938 11.4568C155.938 11.4568 155.473 12.792 155.503 13.1843C155.503 13.1843 155.385 14.6503 155.902 13.8626C155.902 13.8626 156.881 12.4787 157.012 14.2823L156.677 18.7655L156.416 22.6525L155.88 27.0171C155.88 27.0171 155.509 29.137 155.269 28.991Z"></path>
</g>
</svg>
