<svg xmlns="http://www.w3.org/2000/svg" fill="none" viewBox="0 0 189 30" height="30" width="189">
<g clip-path="url(#clip0_102_307)">
<path fill="#58322B" d="M0.326172 2.66478H4.28011L20.0959 22.6048V2.65869H24.0498V28.3259H20.1233L4.30749 8.42537V28.3259H0.326172V2.66478Z"></path>
<path fill="#58322B" d="M31.541 2.65869H51.6149V6.26286H35.495V12.8294L47.2199 12.8447V16.3515H35.4737V24.7004H51.6301V28.3259H31.541V2.65869Z"></path>
<path fill="#58322B" d="M57.5914 2.65869H61.5454V28.3259H57.5914V2.65869Z"></path>
<path fill="#58322B" d="M67.5341 15.5273C67.5341 8.11213 73.3707 2.19946 81.2208 2.19946C85.6097 2.19946 89.3537 3.97265 91.866 6.79212L88.8245 9.19186C86.9996 7.1571 84.3201 5.91921 81.2056 5.91921C75.6731 5.91921 71.4728 10.0648 71.4728 15.5212C71.4728 20.9777 75.7309 25.0928 81.2573 25.0928C82.736 25.0913 84.1967 24.7682 85.538 24.1458C86.8794 23.5235 88.0693 22.6168 89.0253 21.4886V15.3904H92.9975V22.7721C91.6529 24.6262 89.891 26.1379 87.8542 27.1851C85.8174 28.2324 83.5627 28.7857 81.2725 28.8004C73.4224 28.8004 67.5341 22.912 67.5341 15.5273Z"></path>
<path fill="#58322B" d="M99.2933 2.65869H103.266V12.8538H118.224V2.65869H122.178V28.3259H118.224L118.178 16.464H103.275V28.3259H99.2933V2.65869Z"></path>
<path fill="#58322B" d="M135.825 6.28111H126.855L126.834 2.65869H148.696V6.28111H139.748V28.3259H135.825V6.28111Z"></path>
<path fill="#58322B" d="M160.89 2.65869H165.315L174.85 21.7045L184.352 2.66173H188.674L174.893 29.3691L160.89 2.65869Z"></path>
<path fill="#15130E" d="M155.269 29.491C155.269 29.491 155.001 29.3572 154.782 26.0723C154.563 22.7875 154.277 15.123 154.277 15.123L154.18 10.0771C154.18 10.0771 154.46 7.74126 153.189 7.07213C153.189 7.07213 151.972 6.24181 152.681 4.91267C152.681 4.91267 153.925 2.31828 154.317 1.81035C154.317 1.81035 155.163 0.88269 155.567 2.19662C155.567 2.19662 156.09 3.71736 156.525 4.24962C156.96 4.78189 158.025 5.57572 157.365 7.63177C156.705 9.68782 155.938 11.9568 155.938 11.9568C155.938 11.9568 155.473 13.292 155.503 13.6843C155.503 13.6843 155.385 15.1503 155.902 14.3626C155.902 14.3626 156.881 12.9787 157.012 14.7823L156.677 19.2655L156.416 23.1525L155.88 27.5171C155.88 27.5171 155.509 29.637 155.269 29.491Z"></path>
</g>
<defs>
<clipPath id="clip0_102_307">
<rect transform="translate(0 0.5)" fill="white" height="29" width="189"></rect>
</clipPath>
</defs>
</svg>
